<svg width="40" height="40" viewBox="0 0 40 40" fill="none" xmlns="http://www.w3.org/2000/svg">
<rect width="40" height="40" rx="10" fill="#FFDEBF"/>
<path d="M23.9713 11.4711C22.6175 12.8261 20.0462 12.4523 20.0462 12.4523C20.0462 12.4523 19.6737 9.88231 21.0287 8.5273C22.3825 7.17355 24.9538 7.5473 24.9538 7.5473C24.9538 7.5473 25.3263 10.1161 23.9713 11.4711ZM10 22.5749C10 26.6762 12.745 31.3874 15.5237 32.3837C16.4862 32.7287 17.4825 32.2524 18.31 31.6587C18.9375 31.2087 19.6975 30.7799 20.3125 30.7799C20.925 30.7799 21.6875 31.2087 22.3137 31.6587C23.1412 32.2524 24.1375 32.7287 25.1012 32.3837C27.075 31.6762 29.0325 29.0924 30 26.1837C28.125 25.6462 26.7575 23.9511 26.7575 21.9424C26.7575 20.1024 27.9062 18.5249 29.54 17.8611C28.4875 15.9911 26.7675 14.9998 24.8238 14.9998C23.8188 14.9998 22.8937 15.4048 22.1487 15.8911C20.9562 16.6661 19.6675 16.6661 18.4763 15.8911C17.73 15.4048 16.8062 14.9998 15.8012 14.9998C12.5962 14.9998 10 17.6936 10 22.5749Z" stroke="#111513" stroke-width="2" stroke-linecap="round" stroke-linejoin="round"/>
</svg>
