<svg width="50" height="50" viewBox="0 0 50 50" fill="none" xmlns="http://www.w3.org/2000/svg">
<rect width="50" height="50" rx="15" fill="#FFDEBF"/>
<path d="M23.0903 10H15.9722L13.8889 21.6949L22.3958 13.5593L23.0903 10Z" fill="#0A0A0A"/>
<path d="M14.9306 21.6949L23.4375 13.5593L22.0486 22.3729H27.4306L27.0833 22.7119L22.0486 27.6271H21.0069V28.8136L12.5 36.9492L14.9306 21.6949Z" fill="#0A0A0A"/>
<path d="M36.4583 13.5593L27.7778 21.6949L29.7743 10H36.9792L36.4583 13.5593Z" fill="#0A0A0A"/>
<path d="M28.8194 21.6949L37.5 13.5593L34.7222 28.6441L26.3889 36.9492L27.8646 27.6271H23.0903L28.2986 22.3729H28.8194V21.6949Z" fill="#0A0A0A"/>
<path d="M35.7639 28.6441L27.4306 36.9492L27.0833 40H34.2014L35.7639 28.6441Z" fill="#0A0A0A"/>
<path d="M20.4861 40H13.1944L13.5417 36.9492L22.0486 28.8136L20.4861 40Z" fill="#0A0A0A"/>
</svg>
