<svg width="40" height="40" viewBox="0 0 40 40" fill="none" xmlns="http://www.w3.org/2000/svg">
<rect width="40" height="40" rx="10" fill="#FFDEBF"/>
<path d="M20.4839 14.029C20.5562 14.1022 20.7728 15.2009 20.2673 16.6659C18.3606 16.5487 17.2099 16.91 16.9451 17.1054C16.9451 17.9111 17.884 20.4015 19.9062 23.3314C21.4469 21.9153 24.2539 17.662 23.1561 11.9781C20.9895 11.2456 14.1285 11.6118 11.6008 13.5895C11.8174 19.083 13.7818 26.2466 19.9062 29.9969C28.6292 24.3087 28.9579 14.6638 28.2116 10.5864L30.956 12.0513C31.3171 17.3251 29.6127 28.8982 19.9062 33C11.0663 28.9568 8.95265 17.3984 9.0008 12.1246C12.1785 9.70741 18.6784 7.72972 25.7561 10.0004C26.7672 17.6913 24.5283 23.3314 19.9062 26.9937C17.4507 25.2358 14.2729 19.2295 14.2007 15.0545C15.1155 14.5417 17.6529 13.6188 20.4839 14.029Z" fill="#111513"/>
</svg>
