<svg width="40" height="40" viewBox="0 0 40 40" fill="none" xmlns="http://www.w3.org/2000/svg">
<rect width="40" height="40" rx="10" fill="#FFDEBF"/>
<path d="M27.505 13.85L21.565 10.42C20.595 9.86 19.395 9.86 18.415 10.42L12.485 13.85C11.515 14.41 10.915 15.45 10.915 16.58V23.42C10.915 24.54 11.515 25.58 12.485 26.15L18.425 29.58C19.395 30.14 20.595 30.14 21.575 29.58L27.515 26.15C28.485 25.59 29.085 24.55 29.085 23.42V16.58C29.075 15.45 28.475 14.42 27.505 13.85ZM19.245 15.75C19.245 15.34 19.585 15 19.995 15C20.405 15 20.745 15.34 20.745 15.75V21C20.745 21.41 20.405 21.75 19.995 21.75C19.585 21.75 19.245 21.41 19.245 21V15.75ZM20.915 24.63C20.865 24.75 20.795 24.86 20.705 24.96C20.515 25.15 20.265 25.25 19.995 25.25C19.865 25.25 19.735 25.22 19.615 25.17C19.485 25.12 19.385 25.05 19.285 24.96C19.195 24.86 19.125 24.75 19.065 24.63C19.015 24.51 18.995 24.38 18.995 24.25C18.995 23.99 19.095 23.73 19.285 23.54C19.385 23.45 19.485 23.38 19.615 23.33C19.985 23.17 20.425 23.26 20.705 23.54C20.795 23.64 20.865 23.74 20.915 23.87C20.965 23.99 20.995 24.12 20.995 24.25C20.995 24.38 20.965 24.51 20.915 24.63Z" fill="#111513"/>
</svg>
