<svg width="40" height="40" viewBox="0 0 40 40" fill="none" xmlns="http://www.w3.org/2000/svg">
<rect width="40" height="40" rx="10" fill="#FFDEBF"/>
<path d="M20.89 13.8799H13.11C11.4 13.8799 10 15.2799 10 16.9899V28.3499C10 29.7999 11.04 30.4199 12.31 29.7099L16.24 27.5199C16.66 27.2899 17.34 27.2899 17.75 27.5199L21.68 29.7099C22.96 30.4099 24 29.7999 24 28.3499V16.9899C24 15.2799 22.6 13.8799 20.89 13.8799Z" fill="#111513"/>
<path d="M30.0001 13.11V24.47C30.0001 25.92 28.9601 26.53 27.6901 25.83L25.7601 24.75C25.6001 24.66 25.5001 24.49 25.5001 24.31V16.99C25.5001 14.45 23.4301 12.38 20.8901 12.38H16.8201C16.4501 12.38 16.1901 11.99 16.3601 11.67C16.8801 10.68 17.9201 10 19.1101 10H26.8901C28.6001 10 30.0001 11.4 30.0001 13.11Z" fill="#111513"/>
</svg>
