<svg width="40" height="40" viewBox="0 0 40 40" fill="none" xmlns="http://www.w3.org/2000/svg">
<rect width="40" height="40" rx="10" fill="#FFDEBF"/>
<path d="M30 12.8502V24.7402C30 25.7102 29.21 26.6002 28.24 26.7202L27.93 26.7602C26.29 26.9802 23.98 27.6602 22.12 28.4402C21.47 28.7102 20.75 28.2202 20.75 27.5102V13.6002C20.75 13.2302 20.96 12.8902 21.29 12.7102C23.12 11.7202 25.89 10.8402 27.77 10.6802H27.83C29.03 10.6802 30 11.6502 30 12.8502Z" fill="#111513"/>
<path d="M18.71 12.7102C16.88 11.7202 14.11 10.8402 12.23 10.6802H12.16C10.96 10.6802 9.98999 11.6502 9.98999 12.8502V24.7402C9.98999 25.7102 10.78 26.6002 11.75 26.7202L12.06 26.7602C13.7 26.9802 16.01 27.6602 17.87 28.4402C18.52 28.7102 19.24 28.2202 19.24 27.5102V13.6002C19.24 13.2202 19.04 12.8902 18.71 12.7102ZM13 15.7402H15.25C15.66 15.7402 16 16.0802 16 16.4902C16 16.9102 15.66 17.2402 15.25 17.2402H13C12.59 17.2402 12.25 16.9102 12.25 16.4902C12.25 16.0802 12.59 15.7402 13 15.7402ZM16 20.2402H13C12.59 20.2402 12.25 19.9102 12.25 19.4902C12.25 19.0802 12.59 18.7402 13 18.7402H16C16.41 18.7402 16.75 19.0802 16.75 19.4902C16.75 19.9102 16.41 20.2402 16 20.2402Z" fill="#111513"/>
</svg>
