<svg width="40" height="40" viewBox="0 0 40 40" fill="none" xmlns="http://www.w3.org/2000/svg">
<rect width="40" height="40" rx="10" fill="#FFDEBF"/>
<path d="M28.5 24.75H26.25V22.5C26.25 22.09 25.91 21.75 25.5 21.75C25.09 21.75 24.75 22.09 24.75 22.5V24.75H22.5C22.09 24.75 21.75 25.09 21.75 25.5C21.75 25.91 22.09 26.25 22.5 26.25H24.75V28.5C24.75 28.91 25.09 29.25 25.5 29.25C25.91 29.25 26.25 28.91 26.25 28.5V26.25H28.5C28.91 26.25 29.25 25.91 29.25 25.5C29.25 25.09 28.91 24.75 28.5 24.75Z" fill="#111513"/>
<path d="M30 16.52V11.98C30 10.57 29.36 10 27.77 10H23.73C22.14 10 21.5 10.57 21.5 11.98V16.51C21.5 17.93 22.14 18.49 23.73 18.49H27.77C29.36 18.5 30 17.93 30 16.52Z" fill="#111513"/>
<path d="M18.5 16.52V11.98C18.5 10.57 17.86 10 16.27 10H12.23C10.64 10 10 10.57 10 11.98V16.51C10 17.93 10.64 18.49 12.23 18.49H16.27C17.86 18.5 18.5 17.93 18.5 16.52Z" fill="#111513"/>
<path d="M18.5 27.77V23.73C18.5 22.14 17.86 21.5 16.27 21.5H12.23C10.64 21.5 10 22.14 10 23.73V27.77C10 29.36 10.64 30 12.23 30H16.27C17.86 30 18.5 29.36 18.5 27.77Z" fill="#111513"/>
</svg>
