<svg width="40" height="40" viewBox="0 0 40 40" fill="none" xmlns="http://www.w3.org/2000/svg">
<rect width="40" height="40" rx="10" fill="#FFDEBF"/>
<path d="M20 9C13.939 9 9 13.939 9 20C9 26.061 13.939 31 20 31C26.061 31 31 26.061 31 20C31 13.939 26.061 9 20 9ZM24.785 23.927C24.631 24.191 24.356 24.334 24.07 24.334C23.927 24.334 23.784 24.301 23.652 24.213L20.242 22.178C19.395 21.672 18.768 20.561 18.768 19.582V15.072C18.768 14.621 19.142 14.247 19.593 14.247C20.044 14.247 20.418 14.621 20.418 15.072V19.582C20.418 19.978 20.748 20.561 21.089 20.759L24.499 22.794C24.895 23.025 25.027 23.531 24.785 23.927Z" fill="#111513"/>
</svg>
