<svg width="40" height="40" viewBox="0 0 40 40" fill="none" xmlns="http://www.w3.org/2000/svg">
<rect width="40" height="40" rx="10" fill="#FFDEBF"/>
<path d="M15 10H14C11 10 10 11.79 10 14V15V29C10 29.83 10.94 30.3 11.6 29.8L13.31 28.52C13.71 28.22 14.27 28.26 14.63 28.62L16.29 30.29C16.68 30.68 17.32 30.68 17.71 30.29L19.39 28.61C19.74 28.26 20.3 28.22 20.69 28.52L22.4 29.8C23.06 30.29 24 29.82 24 29V12C24 10.9 24.9 10 26 10H15ZM14.57 16.03C15.12 16.03 15.57 16.48 15.57 17.03C15.57 17.58 15.12 18.03 14.57 18.03C14.02 18.03 13.57 17.58 13.57 17.03C13.57 16.48 14.02 16.03 14.57 16.03ZM19.43 22.08C18.87 22.08 18.43 21.63 18.43 21.08C18.43 20.53 18.88 20.08 19.43 20.08C19.98 20.08 20.43 20.53 20.43 21.08C20.43 21.63 19.98 22.08 19.43 22.08ZM20.26 16.8L14.8 22.26C14.65 22.41 14.46 22.48 14.27 22.48C14.08 22.48 13.89 22.41 13.74 22.26C13.45 21.97 13.45 21.49 13.74 21.2L19.2 15.74C19.49 15.45 19.97 15.45 20.26 15.74C20.55 16.03 20.55 16.51 20.26 16.8Z" fill="#111513"/>
<path d="M26.01 10V11.5C26.67 11.5 27.3 11.77 27.76 12.22C28.24 12.71 28.5 13.34 28.5 14V16.42C28.5 17.16 28.17 17.5 27.42 17.5H25.5V12.01C25.5 11.73 25.73 11.5 26.01 11.5V10ZM26.01 10C24.9 10 24 10.9 24 12.01V19H27.42C29 19 30 18 30 16.42V14C30 12.9 29.55 11.9 28.83 11.17C28.1 10.45 27.11 10.01 26.01 10C26.02 10 26.01 10 26.01 10Z" fill="#111513"/>
</svg>
