<svg width="40" height="40" viewBox="0 0 40 40" fill="none" xmlns="http://www.w3.org/2000/svg">
<rect width="40" height="40" rx="10" fill="#FFDEBF"/>
<path d="M20 7.5C16.6506 7.5 13.9276 10.1625 13.9276 13.4375C13.9276 16.65 16.4972 19.25 19.8466 19.3625C19.9489 19.35 20.0511 19.35 20.1278 19.3625C20.1534 19.3625 20.1662 19.3625 20.1918 19.3625C20.2045 19.3625 20.2045 19.3625 20.2173 19.3625C23.4901 19.25 26.0597 16.65 26.0724 13.4375C26.0724 10.1625 23.3494 7.5 20 7.5Z" fill="#111513"/>
<path d="M26.4943 22.6875C22.9276 20.3625 17.1108 20.3625 13.5185 22.6875C11.8949 23.75 11 25.1875 11 26.725C11 28.2625 11.8949 29.6875 13.5057 30.7375C15.2955 31.9125 17.6477 32.5 20 32.5C22.3523 32.5 24.7045 31.9125 26.4943 30.7375C28.1051 29.675 29 28.25 29 26.7C28.9872 25.1625 28.1051 23.7375 26.4943 22.6875Z" fill="#111513"/>
</svg>
