<svg width="21" height="20" viewBox="0 0 21 20" fill="none" xmlns="http://www.w3.org/2000/svg">
<path d="M10.5 0C4.98 0 0.5 4.48 0.5 10C0.5 15.52 4.98 20 10.5 20C16.02 20 20.5 15.52 20.5 10C20.5 4.48 16.02 0 10.5 0ZM15.14 6.8C14.99 8.38 14.34 12.22 14.01 13.99C13.87 14.74 13.59 14.99 13.33 15.02C12.75 15.07 12.31 14.64 11.75 14.27C10.87 13.69 10.37 13.33 9.52 12.77C8.53 12.12 9.17 11.76 9.74 11.18C9.89 11.03 12.45 8.7 12.5 8.49C12.5069 8.45819 12.506 8.42517 12.4973 8.3938C12.4886 8.36244 12.4724 8.33367 12.45 8.31C12.39 8.26 12.31 8.28 12.24 8.29C12.15 8.31 10.75 9.24 8.02 11.08C7.62 11.35 7.26 11.49 6.94 11.48C6.58 11.47 5.9 11.28 5.39 11.11C4.76 10.91 4.27 10.8 4.31 10.45C4.33 10.27 4.58 10.09 5.05 9.9C7.97 8.63 9.91 7.79 10.88 7.39C13.66 6.23 14.23 6.03 14.61 6.03C14.69 6.03 14.88 6.05 15 6.15C15.1 6.23 15.13 6.34 15.14 6.42C15.13 6.48 15.15 6.66 15.14 6.8Z" fill="#111513"/>
</svg>
